<?xml version="1.0" encoding="utf-8"?>
<!-- Svg Vector Icons : http://www.onlinewebfonts.com/icon -->
<!DOCTYPE svg PUBLIC "-//W3C//DTD SVG 1.1//EN" "http://www.w3.org/Graphics/SVG/1.1/DTD/svg11.dtd">
<svg version="1.1" xmlns="http://www.w3.org/2000/svg" xmlns:xlink="http://www.w3.org/1999/xlink" x="0px" y="0px" viewBox="0 0 1000 1000" enable-background="new 0 0 1000 1000" xml:space="preserve">
<metadata> Svg Vector Icons : http://www.onlinewebfonts.com/icon </metadata>
<g><g><g><path d="M460.4,495.3c-14-30.1-21.7-64.5-21.7-102.5s7.7-76.2,21.7-112.1c13.9-35.9,34.1-69.4,59.1-98.2c24.9-28.7,54.6-52.8,87.6-69.5c33-16.9,69.2-26.5,107.3-26.5s74.3,7.7,107.3,21.7c33,14,62.7,34.2,87.6,59.1c24.9,24.9,45.1,54.6,59.1,87.6c14,33,21.7,69.2,21.7,107.3s-7.7,74.3-21.7,107.3c-13.9,33-34.1,62.7-59.1,87.6C884.3,582,533,899.5,500,913.4l0,0l0,0c-33-14-384.3-331.4-409.3-356.3c-24.9-24.9-45.1-54.6-59.1-87.6C17.7,436.5,10,400.2,10,362.2s7.7-74.3,21.7-107.3c14-33,34.1-62.7,59.1-87.6c24.9-24.9,54.6-45.1,87.6-59.1c33-13.9,69.2-21.7,107.3-21.7s74.3,9.6,107.3,26.4c33,16.9,62.7,40.9,87.6,69.6c24.9,28.8,45.1,62.3,59.1,98.2c13.9,35.9,21.7,74,21.7,112.1s-7.7,72.4-21.7,102.5c-14,30.1-34.1,56-59.1,77.1"/></g></g><g></g><g></g><g></g><g></g><g></g><g></g><g></g><g></g><g></g><g></g><g></g><g></g><g></g><g></g><g></g></g>
</svg>